<?xml version="1.0" standalone="no"?>
<!DOCTYPE svg PUBLIC "-//W3C//DTD SVG 20010904//EN"
 "http://www.w3.org/TR/2001/REC-SVG-20010904/DTD/svg10.dtd">
<svg version="1.0" xmlns="http://www.w3.org/2000/svg"
 width="700.000000pt" height="700.000000pt" viewBox="0 0 700.000000 700.000000"
 preserveAspectRatio="xMidYMid meet">
<metadata>
Created by potrace 1.14, written by Peter Selinger 2001-2017
</metadata>
<g transform="translate(0.000000,700.000000) scale(0.100000,-0.100000)"
fill="#000000" stroke="none">
<path d="M3478 5835 c-2 -1 -50 -5 -108 -8 -115 -6 -261 -28 -355 -53 -33 -8
-67 -17 -75 -19 -129 -29 -410 -158 -555 -254 -168 -111 -339 -262 -368 -324
-58 -121 1 -262 127 -301 87 -28 156 -11 226 56 136 129 291 236 445 309 153
72 311 117 510 146 57 8 279 8 355 -1 350 -40 660 -187 940 -446 25 -23 56
-48 70 -55 79 -41 195 -20 256 47 86 96 80 219 -15 315 -162 163 -408 328
-621 418 -36 15 -74 31 -85 36 -50 21 -184 61 -268 80 -132 30 -197 39 -327
45 -63 3 -123 7 -132 8 -9 2 -18 3 -20 1z"/>
<path d="M3305 4940 c-242 -42 -466 -157 -623 -318 -87 -90 -94 -210 -16 -300
44 -52 95 -75 164 -75 62 0 109 19 155 61 87 80 154 124 245 160 257 102 535
52 760 -136 91 -77 138 -96 214 -85 108 14 196 129 183 238 -8 60 -28 95 -89
156 -144 141 -361 253 -577 296 -116 22 -298 24 -416 3z"/>
<path d="M3461 4078 c-72 -12 -124 -53 -156 -121 -21 -44 -23 -61 -23 -248 -1
-111 -3 -203 -5 -205 -2 -2 -314 -4 -693 -4 -553 -1 -704 -4 -763 -15 -169
-33 -305 -106 -421 -226 -58 -60 -63 -66 -98 -116 -56 -80 -112 -226 -128
-338 -9 -64 -9 -874 0 -940 18 -125 56 -226 132 -346 26 -42 134 -155 185
-194 102 -79 261 -139 401 -152 101 -10 3159 -9 3243 1 74 8 201 49 275 89
205 109 357 313 406 545 13 63 16 150 17 482 2 472 -2 540 -39 653 -94 288
-348 504 -641 547 -39 5 -360 10 -750 10 l-683 0 0 28 c-3 370 -4 396 -30 442
-45 80 -138 124 -229 108z m1692 -1038 c110 -41 197 -134 229 -245 8 -27 12
-171 13 -450 1 -440 -2 -478 -51 -561 -34 -60 -116 -129 -182 -155 l-57 -22
-1605 0 -1605 0 -60 23 c-83 32 -173 122 -205 205 -23 59 -23 66 -25 480 0
231 3 437 7 458 32 148 167 270 317 286 31 3 756 5 1611 5 l1555 -2 58 -22z"/>
<path d="M2283 2619 c-90 -16 -179 -85 -216 -167 -27 -62 -29 -155 -5 -219 72
-195 327 -253 473 -108 44 45 86 130 89 183 3 45 -15 126 -36 167 -28 52 -110
121 -158 133 -49 12 -110 17 -147 11z"/>
<path d="M3145 2615 c-71 -17 -109 -40 -152 -89 -168 -191 -32 -487 222 -481
240 6 367 277 220 470 -32 42 -111 92 -157 99 -73 13 -85 13 -133 1z"/>
</g>
</svg>
